<?xml version="1.0" encoding="utf-8"?>
<!-- Generator: Adobe Illustrator 13.0.0, SVG Export Plug-In  -->
<!DOCTYPE svg PUBLIC "-//W3C//DTD SVG 1.1//EN" "http://www.w3.org/Graphics/SVG/1.1/DTD/svg11.dtd" [
	<!ENTITY ns_flows "http://ns.adobe.com/Flows/1.0/">
]>
<svg version="1.1"
	 xmlns="http://www.w3.org/2000/svg" xmlns:xlink="http://www.w3.org/1999/xlink" xmlns:a="http://ns.adobe.com/AdobeSVGViewerExtensions/3.0/"
	 x="0px" y="0px" width="148px" height="115px" viewBox="0 -0.052 148 115" enable-background="new 0 -0.052 148 115"
	 xml:space="preserve">
<defs>
</defs>
<rect y="0.006" width="16.421" height="114.942"/>
<polygon points="131.369,0.006 131.369,0 98.443,0 98.443,16.421 131.369,16.421 131.369,114.947 147.79,114.947 147.79,0.006 "/>
<polygon points="114.8,82.105 114.8,65.749 82.105,65.749 82.105,49.264 114.8,49.264 114.8,32.946 82.105,32.946 82.105,0.006 
	65.773,0.006 65.773,0 32.848,0 32.848,16.421 65.685,16.421 65.685,32.946 32.827,32.946 32.827,49.264 65.685,49.264 
	65.685,65.749 49.264,65.749 32.842,65.685 32.842,114.947 49.264,114.947 49.264,82.105 65.685,82.105 65.685,114.947 
	82.105,114.947 82.105,82.105 "/>
<rect x="98.526" y="98.527" width="16.421" height="16.421"/>
</svg>
